<?xml version="1.0" encoding="utf-8" standalone="no"?>
<!DOCTYPE svg PUBLIC "-//W3C//DTD SVG 1.1//EN"
  "http://www.w3.org/Graphics/SVG/1.1/DTD/svg11.dtd">
<svg height="504pt" version="1.1" viewBox="0 0 792 504" width="792pt" xmlns="http://www.w3.org/2000/svg" xmlns:xlink="http://www.w3.org/1999/xlink">
 <metadata>
  <rdf:RDF xmlns:cc="http://creativecommons.org/ns#" xmlns:dc="http://purl.org/dc/elements/1.1/" xmlns:rdf="http://www.w3.org/1999/02/22-rdf-syntax-ns#">
   <cc:Work>
    <dc:type rdf:resource="http://purl.org/dc/dcmitype/StillImage"/>
    <dc:date>2022-01-18T11:02:33.502987</dc:date>
    <dc:format>image/svg+xml</dc:format>
    <dc:creator>
     <cc:Agent>
      <dc:title>Matplotlib v3.4.3, https://matplotlib.org/</dc:title>
     </cc:Agent>
    </dc:creator>
   </cc:Work>
  </rdf:RDF>
 </metadata>
 <defs>
  <style type="text/css">*{stroke-linecap:butt;stroke-linejoin:round;}</style>
 </defs>
 <g id="figure_1">
  <g id="patch_1">
   <path d="M 0 504 
L 792 504 
L 792 0 
L 0 0 
z
" style="fill:none;"/>
  </g>
  <g id="axes_1">
   <g id="patch_2">
    <path d="M 99 233.443636 
L 712.8 233.443636 
L 712.8 60.48 
L 99 60.48 
z
" style="fill:#ffffff;"/>
   </g>
   <g id="matplotlib.axis_1">
    <g id="xtick_1">
     <g id="line2d_1">
      <path clip-path="url(#pa252a3ed41)" d="M 126.9 233.443636 
L 126.9 60.48 
" style="fill:none;stroke:#b0b0b0;stroke-linecap:square;stroke-width:0.8;"/>
     </g>
     <g id="line2d_2">
      <defs>
       <path d="M 0 0 
L 0 3.5 
" id="meb2ab65f57" style="stroke:#000000;stroke-width:0.8;"/>
      </defs>
      <g>
       <use style="stroke:#000000;stroke-width:0.8;" x="126.9" xlink:href="#meb2ab65f57" y="233.443636"/>
      </g>
     </g>
     <g id="text_1">
      <!-- $\mathdefault{10^{0}}$ -->
      <g transform="translate(118.1 248.042074)scale(0.1 -0.1)">
       <defs>
        <path d="M 794 531 
L 1825 531 
L 1825 4091 
L 703 3866 
L 703 4441 
L 1819 4666 
L 2450 4666 
L 2450 531 
L 3481 531 
L 3481 0 
L 794 0 
L 794 531 
z
" id="DejaVuSans-31" transform="scale(0.015625)"/>
        <path d="M 2034 4250 
Q 1547 4250 1301 3770 
Q 1056 3291 1056 2328 
Q 1056 1369 1301 889 
Q 1547 409 2034 409 
Q 2525 409 2770 889 
Q 3016 1369 3016 2328 
Q 3016 3291 2770 3770 
Q 2525 4250 2034 4250 
z
M 2034 4750 
Q 2819 4750 3233 4129 
Q 3647 3509 3647 2328 
Q 3647 1150 3233 529 
Q 2819 -91 2034 -91 
Q 1250 -91 836 529 
Q 422 1150 422 2328 
Q 422 3509 836 4129 
Q 1250 4750 2034 4750 
z
" id="DejaVuSans-30" transform="scale(0.015625)"/>
       </defs>
       <use transform="translate(0 0.765625)" xlink:href="#DejaVuSans-31"/>
       <use transform="translate(63.623047 0.765625)" xlink:href="#DejaVuSans-30"/>
       <use transform="translate(128.203125 39.046875)scale(0.7)" xlink:href="#DejaVuSans-30"/>
      </g>
     </g>
    </g>
    <g id="xtick_2">
     <g id="line2d_3">
      <path clip-path="url(#pa252a3ed41)" d="M 266.4 233.443636 
L 266.4 60.48 
" style="fill:none;stroke:#b0b0b0;stroke-linecap:square;stroke-width:0.8;"/>
     </g>
     <g id="line2d_4">
      <g>
       <use style="stroke:#000000;stroke-width:0.8;" x="266.4" xlink:href="#meb2ab65f57" y="233.443636"/>
      </g>
     </g>
     <g id="text_2">
      <!-- $\mathdefault{10^{1}}$ -->
      <g transform="translate(257.6 248.042074)scale(0.1 -0.1)">
       <use transform="translate(0 0.684375)" xlink:href="#DejaVuSans-31"/>
       <use transform="translate(63.623047 0.684375)" xlink:href="#DejaVuSans-30"/>
       <use transform="translate(128.203125 38.965625)scale(0.7)" xlink:href="#DejaVuSans-31"/>
      </g>
     </g>
    </g>
    <g id="xtick_3">
     <g id="line2d_5">
      <path clip-path="url(#pa252a3ed41)" d="M 405.9 233.443636 
L 405.9 60.48 
" style="fill:none;stroke:#b0b0b0;stroke-linecap:square;stroke-width:0.8;"/>
     </g>
     <g id="line2d_6">
      <g>
       <use style="stroke:#000000;stroke-width:0.8;" x="405.9" xlink:href="#meb2ab65f57" y="233.443636"/>
      </g>
     </g>
     <g id="text_3">
      <!-- $\mathdefault{10^{2}}$ -->
      <g transform="translate(397.1 248.042074)scale(0.1 -0.1)">
       <defs>
        <path d="M 1228 531 
L 3431 531 
L 3431 0 
L 469 0 
L 469 531 
Q 828 903 1448 1529 
Q 2069 2156 2228 2338 
Q 2531 2678 2651 2914 
Q 2772 3150 2772 3378 
Q 2772 3750 2511 3984 
Q 2250 4219 1831 4219 
Q 1534 4219 1204 4116 
Q 875 4013 500 3803 
L 500 4441 
Q 881 4594 1212 4672 
Q 1544 4750 1819 4750 
Q 2544 4750 2975 4387 
Q 3406 4025 3406 3419 
Q 3406 3131 3298 2873 
Q 3191 2616 2906 2266 
Q 2828 2175 2409 1742 
Q 1991 1309 1228 531 
z
" id="DejaVuSans-32" transform="scale(0.015625)"/>
       </defs>
       <use transform="translate(0 0.765625)" xlink:href="#DejaVuSans-31"/>
       <use transform="translate(63.623047 0.765625)" xlink:href="#DejaVuSans-30"/>
       <use transform="translate(128.203125 39.046875)scale(0.7)" xlink:href="#DejaVuSans-32"/>
      </g>
     </g>
    </g>
    <g id="xtick_4">
     <g id="line2d_7">
      <path clip-path="url(#pa252a3ed41)" d="M 545.4 233.443636 
L 545.4 60.48 
" style="fill:none;stroke:#b0b0b0;stroke-linecap:square;stroke-width:0.8;"/>
     </g>
     <g id="line2d_8">
      <g>
       <use style="stroke:#000000;stroke-width:0.8;" x="545.4" xlink:href="#meb2ab65f57" y="233.443636"/>
      </g>
     </g>
     <g id="text_4">
      <!-- $\mathdefault{10^{3}}$ -->
      <g transform="translate(536.6 248.042074)scale(0.1 -0.1)">
       <defs>
        <path d="M 2597 2516 
Q 3050 2419 3304 2112 
Q 3559 1806 3559 1356 
Q 3559 666 3084 287 
Q 2609 -91 1734 -91 
Q 1441 -91 1130 -33 
Q 819 25 488 141 
L 488 750 
Q 750 597 1062 519 
Q 1375 441 1716 441 
Q 2309 441 2620 675 
Q 2931 909 2931 1356 
Q 2931 1769 2642 2001 
Q 2353 2234 1838 2234 
L 1294 2234 
L 1294 2753 
L 1863 2753 
Q 2328 2753 2575 2939 
Q 2822 3125 2822 3475 
Q 2822 3834 2567 4026 
Q 2313 4219 1838 4219 
Q 1578 4219 1281 4162 
Q 984 4106 628 3988 
L 628 4550 
Q 988 4650 1302 4700 
Q 1616 4750 1894 4750 
Q 2613 4750 3031 4423 
Q 3450 4097 3450 3541 
Q 3450 3153 3228 2886 
Q 3006 2619 2597 2516 
z
" id="DejaVuSans-33" transform="scale(0.015625)"/>
       </defs>
       <use transform="translate(0 0.765625)" xlink:href="#DejaVuSans-31"/>
       <use transform="translate(63.623047 0.765625)" xlink:href="#DejaVuSans-30"/>
       <use transform="translate(128.203125 39.046875)scale(0.7)" xlink:href="#DejaVuSans-33"/>
      </g>
     </g>
    </g>
    <g id="xtick_5">
     <g id="line2d_9">
      <path clip-path="url(#pa252a3ed41)" d="M 684.9 233.443636 
L 684.9 60.48 
" style="fill:none;stroke:#b0b0b0;stroke-linecap:square;stroke-width:0.8;"/>
     </g>
     <g id="line2d_10">
      <g>
       <use style="stroke:#000000;stroke-width:0.8;" x="684.9" xlink:href="#meb2ab65f57" y="233.443636"/>
      </g>
     </g>
     <g id="text_5">
      <!-- $\mathdefault{10^{4}}$ -->
      <g transform="translate(676.1 248.042074)scale(0.1 -0.1)">
       <defs>
        <path d="M 2419 4116 
L 825 1625 
L 2419 1625 
L 2419 4116 
z
M 2253 4666 
L 3047 4666 
L 3047 1625 
L 3713 1625 
L 3713 1100 
L 3047 1100 
L 3047 0 
L 2419 0 
L 2419 1100 
L 313 1100 
L 313 1709 
L 2253 4666 
z
" id="DejaVuSans-34" transform="scale(0.015625)"/>
       </defs>
       <use transform="translate(0 0.684375)" xlink:href="#DejaVuSans-31"/>
       <use transform="translate(63.623047 0.684375)" xlink:href="#DejaVuSans-30"/>
       <use transform="translate(128.203125 38.965625)scale(0.7)" xlink:href="#DejaVuSans-34"/>
      </g>
     </g>
    </g>
    <g id="xtick_6">
     <g id="line2d_11">
      <defs>
       <path d="M 0 0 
L 0 2 
" id="m050b9afbb3" style="stroke:#000000;stroke-width:0.6;"/>
      </defs>
      <g>
       <use style="stroke:#000000;stroke-width:0.6;" x="105.291177" xlink:href="#m050b9afbb3" y="233.443636"/>
      </g>
     </g>
    </g>
    <g id="xtick_7">
     <g id="line2d_12">
      <g>
       <use style="stroke:#000000;stroke-width:0.6;" x="113.381053" xlink:href="#m050b9afbb3" y="233.443636"/>
      </g>
     </g>
    </g>
    <g id="xtick_8">
     <g id="line2d_13">
      <g>
       <use style="stroke:#000000;stroke-width:0.6;" x="120.51683" xlink:href="#m050b9afbb3" y="233.443636"/>
      </g>
     </g>
    </g>
    <g id="xtick_9">
     <g id="line2d_14">
      <g>
       <use style="stroke:#000000;stroke-width:0.6;" x="168.893684" xlink:href="#m050b9afbb3" y="233.443636"/>
      </g>
     </g>
    </g>
    <g id="xtick_10">
     <g id="line2d_15">
      <g>
       <use style="stroke:#000000;stroke-width:0.6;" x="193.458415" xlink:href="#m050b9afbb3" y="233.443636"/>
      </g>
     </g>
    </g>
    <g id="xtick_11">
     <g id="line2d_16">
      <g>
       <use style="stroke:#000000;stroke-width:0.6;" x="210.887369" xlink:href="#m050b9afbb3" y="233.443636"/>
      </g>
     </g>
    </g>
    <g id="xtick_12">
     <g id="line2d_17">
      <g>
       <use style="stroke:#000000;stroke-width:0.6;" x="224.406316" xlink:href="#m050b9afbb3" y="233.443636"/>
      </g>
     </g>
    </g>
    <g id="xtick_13">
     <g id="line2d_18">
      <g>
       <use style="stroke:#000000;stroke-width:0.6;" x="235.452099" xlink:href="#m050b9afbb3" y="233.443636"/>
      </g>
     </g>
    </g>
    <g id="xtick_14">
     <g id="line2d_19">
      <g>
       <use style="stroke:#000000;stroke-width:0.6;" x="244.791177" xlink:href="#m050b9afbb3" y="233.443636"/>
      </g>
     </g>
    </g>
    <g id="xtick_15">
     <g id="line2d_20">
      <g>
       <use style="stroke:#000000;stroke-width:0.6;" x="252.881053" xlink:href="#m050b9afbb3" y="233.443636"/>
      </g>
     </g>
    </g>
    <g id="xtick_16">
     <g id="line2d_21">
      <g>
       <use style="stroke:#000000;stroke-width:0.6;" x="260.01683" xlink:href="#m050b9afbb3" y="233.443636"/>
      </g>
     </g>
    </g>
    <g id="xtick_17">
     <g id="line2d_22">
      <g>
       <use style="stroke:#000000;stroke-width:0.6;" x="308.393684" xlink:href="#m050b9afbb3" y="233.443636"/>
      </g>
     </g>
    </g>
    <g id="xtick_18">
     <g id="line2d_23">
      <g>
       <use style="stroke:#000000;stroke-width:0.6;" x="332.958415" xlink:href="#m050b9afbb3" y="233.443636"/>
      </g>
     </g>
    </g>
    <g id="xtick_19">
     <g id="line2d_24">
      <g>
       <use style="stroke:#000000;stroke-width:0.6;" x="350.387369" xlink:href="#m050b9afbb3" y="233.443636"/>
      </g>
     </g>
    </g>
    <g id="xtick_20">
     <g id="line2d_25">
      <g>
       <use style="stroke:#000000;stroke-width:0.6;" x="363.906316" xlink:href="#m050b9afbb3" y="233.443636"/>
      </g>
     </g>
    </g>
    <g id="xtick_21">
     <g id="line2d_26">
      <g>
       <use style="stroke:#000000;stroke-width:0.6;" x="374.952099" xlink:href="#m050b9afbb3" y="233.443636"/>
      </g>
     </g>
    </g>
    <g id="xtick_22">
     <g id="line2d_27">
      <g>
       <use style="stroke:#000000;stroke-width:0.6;" x="384.291177" xlink:href="#m050b9afbb3" y="233.443636"/>
      </g>
     </g>
    </g>
    <g id="xtick_23">
     <g id="line2d_28">
      <g>
       <use style="stroke:#000000;stroke-width:0.6;" x="392.381053" xlink:href="#m050b9afbb3" y="233.443636"/>
      </g>
     </g>
    </g>
    <g id="xtick_24">
     <g id="line2d_29">
      <g>
       <use style="stroke:#000000;stroke-width:0.6;" x="399.51683" xlink:href="#m050b9afbb3" y="233.443636"/>
      </g>
     </g>
    </g>
    <g id="xtick_25">
     <g id="line2d_30">
      <g>
       <use style="stroke:#000000;stroke-width:0.6;" x="447.893684" xlink:href="#m050b9afbb3" y="233.443636"/>
      </g>
     </g>
    </g>
    <g id="xtick_26">
     <g id="line2d_31">
      <g>
       <use style="stroke:#000000;stroke-width:0.6;" x="472.458415" xlink:href="#m050b9afbb3" y="233.443636"/>
      </g>
     </g>
    </g>
    <g id="xtick_27">
     <g id="line2d_32">
      <g>
       <use style="stroke:#000000;stroke-width:0.6;" x="489.887369" xlink:href="#m050b9afbb3" y="233.443636"/>
      </g>
     </g>
    </g>
    <g id="xtick_28">
     <g id="line2d_33">
      <g>
       <use style="stroke:#000000;stroke-width:0.6;" x="503.406316" xlink:href="#m050b9afbb3" y="233.443636"/>
      </g>
     </g>
    </g>
    <g id="xtick_29">
     <g id="line2d_34">
      <g>
       <use style="stroke:#000000;stroke-width:0.6;" x="514.452099" xlink:href="#m050b9afbb3" y="233.443636"/>
      </g>
     </g>
    </g>
    <g id="xtick_30">
     <g id="line2d_35">
      <g>
       <use style="stroke:#000000;stroke-width:0.6;" x="523.791177" xlink:href="#m050b9afbb3" y="233.443636"/>
      </g>
     </g>
    </g>
    <g id="xtick_31">
     <g id="line2d_36">
      <g>
       <use style="stroke:#000000;stroke-width:0.6;" x="531.881053" xlink:href="#m050b9afbb3" y="233.443636"/>
      </g>
     </g>
    </g>
    <g id="xtick_32">
     <g id="line2d_37">
      <g>
       <use style="stroke:#000000;stroke-width:0.6;" x="539.01683" xlink:href="#m050b9afbb3" y="233.443636"/>
      </g>
     </g>
    </g>
    <g id="xtick_33">
     <g id="line2d_38">
      <g>
       <use style="stroke:#000000;stroke-width:0.6;" x="587.393684" xlink:href="#m050b9afbb3" y="233.443636"/>
      </g>
     </g>
    </g>
    <g id="xtick_34">
     <g id="line2d_39">
      <g>
       <use style="stroke:#000000;stroke-width:0.6;" x="611.958415" xlink:href="#m050b9afbb3" y="233.443636"/>
      </g>
     </g>
    </g>
    <g id="xtick_35">
     <g id="line2d_40">
      <g>
       <use style="stroke:#000000;stroke-width:0.6;" x="629.387369" xlink:href="#m050b9afbb3" y="233.443636"/>
      </g>
     </g>
    </g>
    <g id="xtick_36">
     <g id="line2d_41">
      <g>
       <use style="stroke:#000000;stroke-width:0.6;" x="642.906316" xlink:href="#m050b9afbb3" y="233.443636"/>
      </g>
     </g>
    </g>
    <g id="xtick_37">
     <g id="line2d_42">
      <g>
       <use style="stroke:#000000;stroke-width:0.6;" x="653.952099" xlink:href="#m050b9afbb3" y="233.443636"/>
      </g>
     </g>
    </g>
    <g id="xtick_38">
     <g id="line2d_43">
      <g>
       <use style="stroke:#000000;stroke-width:0.6;" x="663.291177" xlink:href="#m050b9afbb3" y="233.443636"/>
      </g>
     </g>
    </g>
    <g id="xtick_39">
     <g id="line2d_44">
      <g>
       <use style="stroke:#000000;stroke-width:0.6;" x="671.381053" xlink:href="#m050b9afbb3" y="233.443636"/>
      </g>
     </g>
    </g>
    <g id="xtick_40">
     <g id="line2d_45">
      <g>
       <use style="stroke:#000000;stroke-width:0.6;" x="678.51683" xlink:href="#m050b9afbb3" y="233.443636"/>
      </g>
     </g>
    </g>
   </g>
   <g id="matplotlib.axis_2">
    <g id="ytick_1">
     <g id="line2d_46">
      <path clip-path="url(#pa252a3ed41)" d="M 99 182.271163 
L 712.8 182.271163 
" style="fill:none;stroke:#b0b0b0;stroke-linecap:square;stroke-width:0.8;"/>
     </g>
     <g id="line2d_47">
      <defs>
       <path d="M 0 0 
L -3.5 0 
" id="m690a22627c" style="stroke:#000000;stroke-width:0.8;"/>
      </defs>
      <g>
       <use style="stroke:#000000;stroke-width:0.8;" x="99" xlink:href="#m690a22627c" y="182.271163"/>
      </g>
     </g>
     <g id="text_6">
      <!-- $\mathdefault{10^{-1}}$ -->
      <g transform="translate(68.5 186.070382)scale(0.1 -0.1)">
       <defs>
        <path d="M 678 2272 
L 4684 2272 
L 4684 1741 
L 678 1741 
L 678 2272 
z
" id="DejaVuSans-2212" transform="scale(0.015625)"/>
       </defs>
       <use transform="translate(0 0.684375)" xlink:href="#DejaVuSans-31"/>
       <use transform="translate(63.623047 0.684375)" xlink:href="#DejaVuSans-30"/>
       <use transform="translate(128.203125 38.965625)scale(0.7)" xlink:href="#DejaVuSans-2212"/>
       <use transform="translate(186.855469 38.965625)scale(0.7)" xlink:href="#DejaVuSans-31"/>
      </g>
     </g>
    </g>
    <g id="ytick_2">
     <g id="line2d_48">
      <path clip-path="url(#pa252a3ed41)" d="M 99 68.341883 
L 712.8 68.341883 
" style="fill:none;stroke:#b0b0b0;stroke-linecap:square;stroke-width:0.8;"/>
     </g>
     <g id="line2d_49">
      <g>
       <use style="stroke:#000000;stroke-width:0.8;" x="99" xlink:href="#m690a22627c" y="68.341883"/>
      </g>
     </g>
     <g id="text_7">
      <!-- $\mathdefault{10^{0}}$ -->
      <g transform="translate(74.4 72.141102)scale(0.1 -0.1)">
       <use transform="translate(0 0.765625)" xlink:href="#DejaVuSans-31"/>
       <use transform="translate(63.623047 0.765625)" xlink:href="#DejaVuSans-30"/>
       <use transform="translate(128.203125 39.046875)scale(0.7)" xlink:href="#DejaVuSans-30"/>
      </g>
     </g>
    </g>
    <g id="ytick_3">
     <g id="line2d_50">
      <defs>
       <path d="M 0 0 
L -2 0 
" id="m6d690eb36e" style="stroke:#000000;stroke-width:0.6;"/>
      </defs>
      <g>
       <use style="stroke:#000000;stroke-width:0.6;" x="99" xlink:href="#m6d690eb36e" y="227.608182"/>
      </g>
     </g>
    </g>
    <g id="ytick_4">
     <g id="line2d_51">
      <g>
       <use style="stroke:#000000;stroke-width:0.6;" x="99" xlink:href="#m6d690eb36e" y="216.567294"/>
      </g>
     </g>
    </g>
    <g id="ytick_5">
     <g id="line2d_52">
      <g>
       <use style="stroke:#000000;stroke-width:0.6;" x="99" xlink:href="#m6d690eb36e" y="207.546232"/>
      </g>
     </g>
    </g>
    <g id="ytick_6">
     <g id="line2d_53">
      <g>
       <use style="stroke:#000000;stroke-width:0.6;" x="99" xlink:href="#m6d690eb36e" y="199.919032"/>
      </g>
     </g>
    </g>
    <g id="ytick_7">
     <g id="line2d_54">
      <g>
       <use style="stroke:#000000;stroke-width:0.6;" x="99" xlink:href="#m6d690eb36e" y="193.312051"/>
      </g>
     </g>
    </g>
    <g id="ytick_8">
     <g id="line2d_55">
      <g>
       <use style="stroke:#000000;stroke-width:0.6;" x="99" xlink:href="#m6d690eb36e" y="187.484281"/>
      </g>
     </g>
    </g>
    <g id="ytick_9">
     <g id="line2d_56">
      <g>
       <use style="stroke:#000000;stroke-width:0.6;" x="99" xlink:href="#m6d690eb36e" y="147.975033"/>
      </g>
     </g>
    </g>
    <g id="ytick_10">
     <g id="line2d_57">
      <g>
       <use style="stroke:#000000;stroke-width:0.6;" x="99" xlink:href="#m6d690eb36e" y="127.913082"/>
      </g>
     </g>
    </g>
    <g id="ytick_11">
     <g id="line2d_58">
      <g>
       <use style="stroke:#000000;stroke-width:0.6;" x="99" xlink:href="#m6d690eb36e" y="113.678902"/>
      </g>
     </g>
    </g>
    <g id="ytick_12">
     <g id="line2d_59">
      <g>
       <use style="stroke:#000000;stroke-width:0.6;" x="99" xlink:href="#m6d690eb36e" y="102.638014"/>
      </g>
     </g>
    </g>
    <g id="ytick_13">
     <g id="line2d_60">
      <g>
       <use style="stroke:#000000;stroke-width:0.6;" x="99" xlink:href="#m6d690eb36e" y="93.616952"/>
      </g>
     </g>
    </g>
    <g id="ytick_14">
     <g id="line2d_61">
      <g>
       <use style="stroke:#000000;stroke-width:0.6;" x="99" xlink:href="#m6d690eb36e" y="85.989752"/>
      </g>
     </g>
    </g>
    <g id="ytick_15">
     <g id="line2d_62">
      <g>
       <use style="stroke:#000000;stroke-width:0.6;" x="99" xlink:href="#m6d690eb36e" y="79.382771"/>
      </g>
     </g>
    </g>
    <g id="ytick_16">
     <g id="line2d_63">
      <g>
       <use style="stroke:#000000;stroke-width:0.6;" x="99" xlink:href="#m6d690eb36e" y="73.555001"/>
      </g>
     </g>
    </g>
    <g id="text_8">
     <!-- $|H(\omega)|$ -->
     <g transform="translate(62.1 162.211818)rotate(-90)scale(0.1 -0.1)">
      <defs>
       <path d="M 1344 4891 
L 1344 -1509 
L 813 -1509 
L 813 4891 
L 1344 4891 
z
" id="DejaVuSans-7c" transform="scale(0.015625)"/>
       <path d="M 1081 4666 
L 1716 4666 
L 1344 2753 
L 3634 2753 
L 4006 4666 
L 4641 4666 
L 3731 0 
L 3097 0 
L 3531 2222 
L 1241 2222 
L 806 0 
L 172 0 
L 1081 4666 
z
" id="DejaVuSans-Oblique-48" transform="scale(0.015625)"/>
       <path d="M 1984 4856 
Q 1566 4138 1362 3434 
Q 1159 2731 1159 2009 
Q 1159 1288 1364 580 
Q 1569 -128 1984 -844 
L 1484 -844 
Q 1016 -109 783 600 
Q 550 1309 550 2009 
Q 550 2706 781 3412 
Q 1013 4119 1484 4856 
L 1984 4856 
z
" id="DejaVuSans-28" transform="scale(0.015625)"/>
       <path d="M 1369 -91 
Q 72 -91 434 1766 
Q 575 2500 1256 3500 
L 1875 3500 
Q 1231 2500 1088 1750 
Q 819 397 1519 397 
Q 2166 397 2478 2078 
L 3009 2078 
Q 2669 388 3316 397 
Q 4013 403 4275 1750 
Q 4419 2500 4169 3500 
L 4788 3500 
Q 5075 2500 4934 1766 
Q 4578 -94 3278 -91 
Q 2428 -88 2503 844 
Q 2194 -91 1369 -91 
z
" id="DejaVuSans-Oblique-3c9" transform="scale(0.015625)"/>
       <path d="M 513 4856 
L 1013 4856 
Q 1481 4119 1714 3412 
Q 1947 2706 1947 2009 
Q 1947 1309 1714 600 
Q 1481 -109 1013 -844 
L 513 -844 
Q 928 -128 1133 580 
Q 1338 1288 1338 2009 
Q 1338 2731 1133 3434 
Q 928 4138 513 4856 
z
" id="DejaVuSans-29" transform="scale(0.015625)"/>
      </defs>
      <use transform="translate(0 0.578125)" xlink:href="#DejaVuSans-7c"/>
      <use transform="translate(33.691406 0.578125)" xlink:href="#DejaVuSans-Oblique-48"/>
      <use transform="translate(108.886719 0.578125)" xlink:href="#DejaVuSans-28"/>
      <use transform="translate(147.900391 0.578125)" xlink:href="#DejaVuSans-Oblique-3c9"/>
      <use transform="translate(231.640625 0.578125)" xlink:href="#DejaVuSans-29"/>
      <use transform="translate(270.654297 0.578125)" xlink:href="#DejaVuSans-7c"/>
     </g>
    </g>
   </g>
   <g id="line2d_64">
    <path clip-path="url(#pa252a3ed41)" d="M 126.9 68.341983 
L 132.536364 68.342004 
L 138.172727 68.342029 
L 143.809091 68.342058 
L 149.445455 68.342094 
L 155.081818 68.342137 
L 160.718182 68.342189 
L 166.354545 68.342251 
L 171.990909 68.342327 
L 177.627273 68.342417 
L 183.263636 68.342526 
L 188.9 68.342658 
L 194.536364 68.342816 
L 200.172727 68.343007 
L 205.809091 68.343237 
L 211.445455 68.343513 
L 217.081818 68.343847 
L 222.718182 68.344248 
L 228.354545 68.344732 
L 233.990909 68.345314 
L 239.627273 68.346016 
L 245.263636 68.346861 
L 250.9 68.347878 
L 256.536364 68.349104 
L 262.172727 68.35058 
L 267.809091 68.352359 
L 273.445455 68.3545 
L 279.081818 68.35708 
L 284.718182 68.360186 
L 290.354545 68.363927 
L 295.990909 68.368433 
L 301.627273 68.373859 
L 307.263636 68.380393 
L 312.9 68.388261 
L 318.536364 68.397735 
L 324.172727 68.409141 
L 329.809091 68.422873 
L 335.445455 68.439403 
L 341.081818 68.459299 
L 346.718182 68.483242 
L 352.354545 68.512052 
L 357.990909 68.546708 
L 363.627273 68.588387 
L 369.263636 68.638497 
L 374.9 68.69872 
L 380.536364 68.771064 
L 386.172727 68.857924 
L 391.809091 68.962143 
L 397.445455 69.087095 
L 403.081818 69.236768 
L 408.718182 69.415855 
L 414.354545 69.629858 
L 419.990909 69.885193 
L 425.627273 70.189285 
L 431.263636 70.550672 
L 436.9 70.979069 
L 442.536364 71.485415 
L 448.172727 72.081864 
L 453.809091 72.781704 
L 459.445455 73.599197 
L 465.081818 74.549298 
L 470.718182 75.647273 
L 476.354545 76.908184 
L 481.990909 78.346281 
L 487.627273 79.974325 
L 493.263636 81.802904 
L 498.9 83.839802 
L 504.536364 86.089506 
L 510.172727 88.552906 
L 515.809091 91.227237 
L 521.445455 94.106265 
L 527.081818 97.180689 
L 532.718182 100.438719 
L 538.354545 103.866742 
L 543.990909 107.450007 
L 549.627273 111.173277 
L 555.263636 115.021389 
L 560.9 118.979706 
L 566.536364 123.034439 
L 572.172727 127.172868 
L 577.809091 131.383462 
L 583.445455 135.655913 
L 589.081818 139.981119 
L 594.718182 144.351128 
L 600.354545 148.759045 
L 605.990909 153.198938 
L 611.627273 157.665735 
L 617.263636 162.155117 
L 622.9 166.663424 
L 628.536364 171.187566 
L 634.172727 175.724938 
L 639.809091 180.273354 
L 645.445455 184.83098 
L 651.081818 189.396279 
L 656.718182 193.96797 
L 662.354545 198.544981 
L 667.990909 203.126418 
L 673.627273 207.711535 
L 679.263636 212.299714 
L 684.9 216.890436 
" style="fill:none;stroke:#1f77b4;stroke-linecap:square;stroke-width:1.5;"/>
   </g>
   <g id="line2d_65">
    <path clip-path="url(#pa252a3ed41)" d="M 126.9 68.34199 
L 132.536364 68.342012 
L 138.172727 68.342038 
L 143.809091 68.342069 
L 149.445455 68.342107 
L 155.081818 68.342153 
L 160.718182 68.342208 
L 166.354545 68.342275 
L 171.990909 68.342355 
L 177.627273 68.342451 
L 183.263636 68.342567 
L 188.9 68.342707 
L 194.536364 68.342875 
L 200.172727 68.343078 
L 205.809091 68.343323 
L 211.445455 68.343617 
L 217.081818 68.343971 
L 222.718182 68.344398 
L 228.354545 68.344912 
L 233.990909 68.345532 
L 239.627273 68.346278 
L 245.263636 68.347176 
L 250.9 68.348259 
L 256.536364 68.349562 
L 262.172727 68.351132 
L 267.809091 68.353023 
L 273.445455 68.355301 
L 279.081818 68.358044 
L 284.718182 68.361347 
L 290.354545 68.365326 
L 295.990909 68.370117 
L 301.627273 68.375887 
L 307.263636 68.382836 
L 312.9 68.391202 
L 318.536364 68.401276 
L 324.172727 68.413404 
L 329.809091 68.428005 
L 335.445455 68.445581 
L 341.081818 68.466734 
L 346.718182 68.492189 
L 352.354545 68.522815 
L 357.990909 68.559653 
L 363.627273 68.603953 
L 369.263636 68.657208 
L 374.9 68.721201 
L 380.536364 68.798063 
L 386.172727 68.890327 
L 391.809091 69.001006 
L 397.445455 69.133665 
L 403.081818 69.292516 
L 408.718182 69.482511 
L 414.354545 69.709441 
L 419.990909 69.980048 
L 425.627273 70.302119 
L 431.263636 70.684575 
L 436.9 71.137541 
L 442.536364 71.672367 
L 448.172727 72.301605 
L 453.809091 73.038899 
L 459.445455 73.898793 
L 465.081818 74.896416 
L 470.718182 76.047054 
L 476.354545 77.365608 
L 481.990909 78.865957 
L 487.627273 80.560271 
L 493.263636 82.458341 
L 498.9 84.566986 
L 504.536364 86.889619 
L 510.172727 89.426029 
L 515.809091 92.172403 
L 521.445455 95.121592 
L 527.081818 98.263587 
L 532.718182 101.586135 
L 538.354545 105.075427 
L 543.990909 108.716794 
L 549.627273 112.495334 
L 555.263636 116.396458 
L 560.9 120.406311 
L 566.536364 124.512086 
L 572.172727 128.702223 
L 577.809091 132.966536 
L 583.445455 137.296257 
L 589.081818 141.68405 
L 594.718182 146.12399 
L 600.354545 150.611533 
L 605.990909 155.143497 
L 611.627273 159.718049 
L 617.263636 164.334729 
L 622.9 168.994499 
L 628.536364 173.699852 
L 634.172727 178.454966 
L 639.809091 183.265949 
L 645.445455 188.141178 
L 651.081818 193.091766 
L 656.718182 198.132224 
L 662.354545 203.28137 
L 667.990909 208.563609 
L 673.627273 214.010767 
L 679.263636 219.664768 
L 684.9 225.581653 
" style="fill:none;stroke:#ff7f0e;stroke-linecap:square;stroke-width:1.5;"/>
   </g>
   <g id="line2d_66">
    <path clip-path="url(#pa252a3ed41)" d="M 503.085486 233.443636 
L 503.085486 60.48 
" style="fill:none;stroke:#ff0000;stroke-dasharray:5.55,2.4;stroke-dashoffset:0;stroke-width:1.5;"/>
   </g>
   <g id="line2d_67">
    <defs>
     <path d="M 0 1.5 
C 0.397805 1.5 0.77937 1.341951 1.06066 1.06066 
C 1.341951 0.77937 1.5 0.397805 1.5 0 
C 1.5 -0.397805 1.341951 -0.77937 1.06066 -1.06066 
C 0.77937 -1.341951 0.397805 -1.5 0 -1.5 
C -0.397805 -1.5 -0.77937 -1.341951 -1.06066 -1.06066 
C -1.341951 -0.77937 -1.5 -0.397805 -1.5 0 
C -1.5 0.397805 -1.341951 0.77937 -1.06066 1.06066 
C -0.77937 1.341951 -0.397805 1.5 0 1.5 
z
" id="m143c7fdb69" style="stroke:#ff0000;"/>
    </defs>
    <g clip-path="url(#pa252a3ed41)">
     <use style="fill:#ff0000;stroke:#ff0000;" x="266.4" xlink:href="#m143c7fdb69" y="68.623815"/>
     <use style="fill:#ff0000;stroke:#ff0000;" x="363.906316" xlink:href="#m143c7fdb69" y="68.695265"/>
     <use style="fill:#ff0000;stroke:#ff0000;" x="405.9" xlink:href="#m143c7fdb69" y="69.390944"/>
     <use style="fill:#ff0000;stroke:#ff0000;" x="447.893684" xlink:href="#m143c7fdb69" y="72.045332"/>
     <use style="fill:#ff0000;stroke:#ff0000;" x="489.887369" xlink:href="#m143c7fdb69" y="79.829358"/>
     <use style="fill:#ff0000;stroke:#ff0000;" x="503.085584" xlink:href="#m143c7fdb69" y="84.435366"/>
     <use style="fill:#ff0000;stroke:#ff0000;" x="514.452099" xlink:href="#m143c7fdb69" y="89.070817"/>
     <use style="fill:#ff0000;stroke:#ff0000;" x="531.881053" xlink:href="#m143c7fdb69" y="97.739715"/>
     <use style="fill:#ff0000;stroke:#ff0000;" x="545.4" xlink:href="#m143c7fdb69" y="105.719079"/>
     <use style="fill:#ff0000;stroke:#ff0000;" x="611.958415" xlink:href="#m143c7fdb69" y="158.554613"/>
     <use style="fill:#ff0000;stroke:#ff0000;" x="653.952099" xlink:href="#m143c7fdb69" y="193.470131"/>
     <use style="fill:#ff0000;stroke:#ff0000;" x="684.9" xlink:href="#m143c7fdb69" y="225.379585"/>
    </g>
   </g>
   <g id="patch_3">
    <path d="M 99 233.443636 
L 99 60.48 
" style="fill:none;stroke:#000000;stroke-linecap:square;stroke-linejoin:miter;stroke-width:0.8;"/>
   </g>
   <g id="patch_4">
    <path d="M 712.8 233.443636 
L 712.8 60.48 
" style="fill:none;stroke:#000000;stroke-linecap:square;stroke-linejoin:miter;stroke-width:0.8;"/>
   </g>
   <g id="patch_5">
    <path d="M 99 233.443636 
L 712.8 233.443636 
" style="fill:none;stroke:#000000;stroke-linecap:square;stroke-linejoin:miter;stroke-width:0.8;"/>
   </g>
   <g id="patch_6">
    <path d="M 99 60.48 
L 712.8 60.48 
" style="fill:none;stroke:#000000;stroke-linecap:square;stroke-linejoin:miter;stroke-width:0.8;"/>
   </g>
   <g id="legend_1">
    <g id="patch_7">
     <path d="M 599.253125 112.514375 
L 705.8 112.514375 
Q 707.8 112.514375 707.8 110.514375 
L 707.8 67.48 
Q 707.8 65.48 705.8 65.48 
L 599.253125 65.48 
Q 597.253125 65.48 597.253125 67.48 
L 597.253125 110.514375 
Q 597.253125 112.514375 599.253125 112.514375 
z
" style="fill:#ffffff;opacity:0.8;stroke:#cccccc;stroke-linejoin:miter;"/>
    </g>
    <g id="line2d_68">
     <path d="M 601.253125 73.578438 
L 621.253125 73.578438 
" style="fill:none;stroke:#1f77b4;stroke-linecap:square;stroke-width:1.5;"/>
    </g>
    <g id="line2d_69"/>
    <g id="text_9">
     <!-- Ideal -->
     <g transform="translate(629.253125 77.078438)scale(0.1 -0.1)">
      <defs>
       <path d="M 628 4666 
L 1259 4666 
L 1259 0 
L 628 0 
L 628 4666 
z
" id="DejaVuSans-49" transform="scale(0.015625)"/>
       <path d="M 2906 2969 
L 2906 4863 
L 3481 4863 
L 3481 0 
L 2906 0 
L 2906 525 
Q 2725 213 2448 61 
Q 2172 -91 1784 -91 
Q 1150 -91 751 415 
Q 353 922 353 1747 
Q 353 2572 751 3078 
Q 1150 3584 1784 3584 
Q 2172 3584 2448 3432 
Q 2725 3281 2906 2969 
z
M 947 1747 
Q 947 1113 1208 752 
Q 1469 391 1925 391 
Q 2381 391 2643 752 
Q 2906 1113 2906 1747 
Q 2906 2381 2643 2742 
Q 2381 3103 1925 3103 
Q 1469 3103 1208 2742 
Q 947 2381 947 1747 
z
" id="DejaVuSans-64" transform="scale(0.015625)"/>
       <path d="M 3597 1894 
L 3597 1613 
L 953 1613 
Q 991 1019 1311 708 
Q 1631 397 2203 397 
Q 2534 397 2845 478 
Q 3156 559 3463 722 
L 3463 178 
Q 3153 47 2828 -22 
Q 2503 -91 2169 -91 
Q 1331 -91 842 396 
Q 353 884 353 1716 
Q 353 2575 817 3079 
Q 1281 3584 2069 3584 
Q 2775 3584 3186 3129 
Q 3597 2675 3597 1894 
z
M 3022 2063 
Q 3016 2534 2758 2815 
Q 2500 3097 2075 3097 
Q 1594 3097 1305 2825 
Q 1016 2553 972 2059 
L 3022 2063 
z
" id="DejaVuSans-65" transform="scale(0.015625)"/>
       <path d="M 2194 1759 
Q 1497 1759 1228 1600 
Q 959 1441 959 1056 
Q 959 750 1161 570 
Q 1363 391 1709 391 
Q 2188 391 2477 730 
Q 2766 1069 2766 1631 
L 2766 1759 
L 2194 1759 
z
M 3341 1997 
L 3341 0 
L 2766 0 
L 2766 531 
Q 2569 213 2275 61 
Q 1981 -91 1556 -91 
Q 1019 -91 701 211 
Q 384 513 384 1019 
Q 384 1609 779 1909 
Q 1175 2209 1959 2209 
L 2766 2209 
L 2766 2266 
Q 2766 2663 2505 2880 
Q 2244 3097 1772 3097 
Q 1472 3097 1187 3025 
Q 903 2953 641 2809 
L 641 3341 
Q 956 3463 1253 3523 
Q 1550 3584 1831 3584 
Q 2591 3584 2966 3190 
Q 3341 2797 3341 1997 
z
" id="DejaVuSans-61" transform="scale(0.015625)"/>
       <path d="M 603 4863 
L 1178 4863 
L 1178 0 
L 603 0 
L 603 4863 
z
" id="DejaVuSans-6c" transform="scale(0.015625)"/>
      </defs>
      <use xlink:href="#DejaVuSans-49"/>
      <use x="29.492188" xlink:href="#DejaVuSans-64"/>
      <use x="92.96875" xlink:href="#DejaVuSans-65"/>
      <use x="154.492188" xlink:href="#DejaVuSans-61"/>
      <use x="215.771484" xlink:href="#DejaVuSans-6c"/>
     </g>
    </g>
    <g id="line2d_70">
     <path d="M 601.253125 88.256563 
L 621.253125 88.256563 
" style="fill:none;stroke:#ff7f0e;stroke-linecap:square;stroke-width:1.5;"/>
    </g>
    <g id="line2d_71"/>
    <g id="text_10">
     <!-- Real -->
     <g transform="translate(629.253125 91.756563)scale(0.1 -0.1)">
      <defs>
       <path d="M 2841 2188 
Q 3044 2119 3236 1894 
Q 3428 1669 3622 1275 
L 4263 0 
L 3584 0 
L 2988 1197 
Q 2756 1666 2539 1819 
Q 2322 1972 1947 1972 
L 1259 1972 
L 1259 0 
L 628 0 
L 628 4666 
L 2053 4666 
Q 2853 4666 3247 4331 
Q 3641 3997 3641 3322 
Q 3641 2881 3436 2590 
Q 3231 2300 2841 2188 
z
M 1259 4147 
L 1259 2491 
L 2053 2491 
Q 2509 2491 2742 2702 
Q 2975 2913 2975 3322 
Q 2975 3731 2742 3939 
Q 2509 4147 2053 4147 
L 1259 4147 
z
" id="DejaVuSans-52" transform="scale(0.015625)"/>
      </defs>
      <use xlink:href="#DejaVuSans-52"/>
      <use x="64.982422" xlink:href="#DejaVuSans-65"/>
      <use x="126.505859" xlink:href="#DejaVuSans-61"/>
      <use x="187.785156" xlink:href="#DejaVuSans-6c"/>
     </g>
    </g>
    <g id="line2d_72"/>
    <g id="line2d_73">
     <g>
      <use style="fill:#ff0000;stroke:#ff0000;" x="611.253125" xlink:href="#m143c7fdb69" y="102.934687"/>
     </g>
    </g>
    <g id="text_11">
     <!-- Measured data -->
     <g transform="translate(629.253125 106.434687)scale(0.1 -0.1)">
      <defs>
       <path d="M 628 4666 
L 1569 4666 
L 2759 1491 
L 3956 4666 
L 4897 4666 
L 4897 0 
L 4281 0 
L 4281 4097 
L 3078 897 
L 2444 897 
L 1241 4097 
L 1241 0 
L 628 0 
L 628 4666 
z
" id="DejaVuSans-4d" transform="scale(0.015625)"/>
       <path d="M 2834 3397 
L 2834 2853 
Q 2591 2978 2328 3040 
Q 2066 3103 1784 3103 
Q 1356 3103 1142 2972 
Q 928 2841 928 2578 
Q 928 2378 1081 2264 
Q 1234 2150 1697 2047 
L 1894 2003 
Q 2506 1872 2764 1633 
Q 3022 1394 3022 966 
Q 3022 478 2636 193 
Q 2250 -91 1575 -91 
Q 1294 -91 989 -36 
Q 684 19 347 128 
L 347 722 
Q 666 556 975 473 
Q 1284 391 1588 391 
Q 1994 391 2212 530 
Q 2431 669 2431 922 
Q 2431 1156 2273 1281 
Q 2116 1406 1581 1522 
L 1381 1569 
Q 847 1681 609 1914 
Q 372 2147 372 2553 
Q 372 3047 722 3315 
Q 1072 3584 1716 3584 
Q 2034 3584 2315 3537 
Q 2597 3491 2834 3397 
z
" id="DejaVuSans-73" transform="scale(0.015625)"/>
       <path d="M 544 1381 
L 544 3500 
L 1119 3500 
L 1119 1403 
Q 1119 906 1312 657 
Q 1506 409 1894 409 
Q 2359 409 2629 706 
Q 2900 1003 2900 1516 
L 2900 3500 
L 3475 3500 
L 3475 0 
L 2900 0 
L 2900 538 
Q 2691 219 2414 64 
Q 2138 -91 1772 -91 
Q 1169 -91 856 284 
Q 544 659 544 1381 
z
M 1991 3584 
L 1991 3584 
z
" id="DejaVuSans-75" transform="scale(0.015625)"/>
       <path d="M 2631 2963 
Q 2534 3019 2420 3045 
Q 2306 3072 2169 3072 
Q 1681 3072 1420 2755 
Q 1159 2438 1159 1844 
L 1159 0 
L 581 0 
L 581 3500 
L 1159 3500 
L 1159 2956 
Q 1341 3275 1631 3429 
Q 1922 3584 2338 3584 
Q 2397 3584 2469 3576 
Q 2541 3569 2628 3553 
L 2631 2963 
z
" id="DejaVuSans-72" transform="scale(0.015625)"/>
       <path id="DejaVuSans-20" transform="scale(0.015625)"/>
       <path d="M 1172 4494 
L 1172 3500 
L 2356 3500 
L 2356 3053 
L 1172 3053 
L 1172 1153 
Q 1172 725 1289 603 
Q 1406 481 1766 481 
L 2356 481 
L 2356 0 
L 1766 0 
Q 1100 0 847 248 
Q 594 497 594 1153 
L 594 3053 
L 172 3053 
L 172 3500 
L 594 3500 
L 594 4494 
L 1172 4494 
z
" id="DejaVuSans-74" transform="scale(0.015625)"/>
      </defs>
      <use xlink:href="#DejaVuSans-4d"/>
      <use x="86.279297" xlink:href="#DejaVuSans-65"/>
      <use x="147.802734" xlink:href="#DejaVuSans-61"/>
      <use x="209.082031" xlink:href="#DejaVuSans-73"/>
      <use x="261.181641" xlink:href="#DejaVuSans-75"/>
      <use x="324.560547" xlink:href="#DejaVuSans-72"/>
      <use x="363.423828" xlink:href="#DejaVuSans-65"/>
      <use x="424.947266" xlink:href="#DejaVuSans-64"/>
      <use x="488.423828" xlink:href="#DejaVuSans-20"/>
      <use x="520.210938" xlink:href="#DejaVuSans-64"/>
      <use x="583.6875" xlink:href="#DejaVuSans-61"/>
      <use x="644.966797" xlink:href="#DejaVuSans-74"/>
      <use x="684.175781" xlink:href="#DejaVuSans-61"/>
     </g>
    </g>
   </g>
  </g>
  <g id="axes_2">
   <g id="patch_8">
    <path d="M 99 441 
L 712.8 441 
L 712.8 268.036364 
L 99 268.036364 
z
" style="fill:#ffffff;"/>
   </g>
   <g id="matplotlib.axis_3">
    <g id="xtick_41">
     <g id="line2d_74">
      <path clip-path="url(#pfc76604fba)" d="M 126.9 441 
L 126.9 268.036364 
" style="fill:none;stroke:#b0b0b0;stroke-linecap:square;stroke-width:0.8;"/>
     </g>
     <g id="line2d_75">
      <g>
       <use style="stroke:#000000;stroke-width:0.8;" x="126.9" xlink:href="#meb2ab65f57" y="441"/>
      </g>
     </g>
     <g id="text_12">
      <!-- $\mathdefault{10^{0}}$ -->
      <g transform="translate(118.1 455.598437)scale(0.1 -0.1)">
       <use transform="translate(0 0.765625)" xlink:href="#DejaVuSans-31"/>
       <use transform="translate(63.623047 0.765625)" xlink:href="#DejaVuSans-30"/>
       <use transform="translate(128.203125 39.046875)scale(0.7)" xlink:href="#DejaVuSans-30"/>
      </g>
     </g>
    </g>
    <g id="xtick_42">
     <g id="line2d_76">
      <path clip-path="url(#pfc76604fba)" d="M 266.4 441 
L 266.4 268.036364 
" style="fill:none;stroke:#b0b0b0;stroke-linecap:square;stroke-width:0.8;"/>
     </g>
     <g id="line2d_77">
      <g>
       <use style="stroke:#000000;stroke-width:0.8;" x="266.4" xlink:href="#meb2ab65f57" y="441"/>
      </g>
     </g>
     <g id="text_13">
      <!-- $\mathdefault{10^{1}}$ -->
      <g transform="translate(257.6 455.598437)scale(0.1 -0.1)">
       <use transform="translate(0 0.684375)" xlink:href="#DejaVuSans-31"/>
       <use transform="translate(63.623047 0.684375)" xlink:href="#DejaVuSans-30"/>
       <use transform="translate(128.203125 38.965625)scale(0.7)" xlink:href="#DejaVuSans-31"/>
      </g>
     </g>
    </g>
    <g id="xtick_43">
     <g id="line2d_78">
      <path clip-path="url(#pfc76604fba)" d="M 405.9 441 
L 405.9 268.036364 
" style="fill:none;stroke:#b0b0b0;stroke-linecap:square;stroke-width:0.8;"/>
     </g>
     <g id="line2d_79">
      <g>
       <use style="stroke:#000000;stroke-width:0.8;" x="405.9" xlink:href="#meb2ab65f57" y="441"/>
      </g>
     </g>
     <g id="text_14">
      <!-- $\mathdefault{10^{2}}$ -->
      <g transform="translate(397.1 455.598437)scale(0.1 -0.1)">
       <use transform="translate(0 0.765625)" xlink:href="#DejaVuSans-31"/>
       <use transform="translate(63.623047 0.765625)" xlink:href="#DejaVuSans-30"/>
       <use transform="translate(128.203125 39.046875)scale(0.7)" xlink:href="#DejaVuSans-32"/>
      </g>
     </g>
    </g>
    <g id="xtick_44">
     <g id="line2d_80">
      <path clip-path="url(#pfc76604fba)" d="M 545.4 441 
L 545.4 268.036364 
" style="fill:none;stroke:#b0b0b0;stroke-linecap:square;stroke-width:0.8;"/>
     </g>
     <g id="line2d_81">
      <g>
       <use style="stroke:#000000;stroke-width:0.8;" x="545.4" xlink:href="#meb2ab65f57" y="441"/>
      </g>
     </g>
     <g id="text_15">
      <!-- $\mathdefault{10^{3}}$ -->
      <g transform="translate(536.6 455.598437)scale(0.1 -0.1)">
       <use transform="translate(0 0.765625)" xlink:href="#DejaVuSans-31"/>
       <use transform="translate(63.623047 0.765625)" xlink:href="#DejaVuSans-30"/>
       <use transform="translate(128.203125 39.046875)scale(0.7)" xlink:href="#DejaVuSans-33"/>
      </g>
     </g>
    </g>
    <g id="xtick_45">
     <g id="line2d_82">
      <path clip-path="url(#pfc76604fba)" d="M 684.9 441 
L 684.9 268.036364 
" style="fill:none;stroke:#b0b0b0;stroke-linecap:square;stroke-width:0.8;"/>
     </g>
     <g id="line2d_83">
      <g>
       <use style="stroke:#000000;stroke-width:0.8;" x="684.9" xlink:href="#meb2ab65f57" y="441"/>
      </g>
     </g>
     <g id="text_16">
      <!-- $\mathdefault{10^{4}}$ -->
      <g transform="translate(676.1 455.598437)scale(0.1 -0.1)">
       <use transform="translate(0 0.684375)" xlink:href="#DejaVuSans-31"/>
       <use transform="translate(63.623047 0.684375)" xlink:href="#DejaVuSans-30"/>
       <use transform="translate(128.203125 38.965625)scale(0.7)" xlink:href="#DejaVuSans-34"/>
      </g>
     </g>
    </g>
    <g id="xtick_46">
     <g id="line2d_84">
      <g>
       <use style="stroke:#000000;stroke-width:0.6;" x="105.291177" xlink:href="#m050b9afbb3" y="441"/>
      </g>
     </g>
    </g>
    <g id="xtick_47">
     <g id="line2d_85">
      <g>
       <use style="stroke:#000000;stroke-width:0.6;" x="113.381053" xlink:href="#m050b9afbb3" y="441"/>
      </g>
     </g>
    </g>
    <g id="xtick_48">
     <g id="line2d_86">
      <g>
       <use style="stroke:#000000;stroke-width:0.6;" x="120.51683" xlink:href="#m050b9afbb3" y="441"/>
      </g>
     </g>
    </g>
    <g id="xtick_49">
     <g id="line2d_87">
      <g>
       <use style="stroke:#000000;stroke-width:0.6;" x="168.893684" xlink:href="#m050b9afbb3" y="441"/>
      </g>
     </g>
    </g>
    <g id="xtick_50">
     <g id="line2d_88">
      <g>
       <use style="stroke:#000000;stroke-width:0.6;" x="193.458415" xlink:href="#m050b9afbb3" y="441"/>
      </g>
     </g>
    </g>
    <g id="xtick_51">
     <g id="line2d_89">
      <g>
       <use style="stroke:#000000;stroke-width:0.6;" x="210.887369" xlink:href="#m050b9afbb3" y="441"/>
      </g>
     </g>
    </g>
    <g id="xtick_52">
     <g id="line2d_90">
      <g>
       <use style="stroke:#000000;stroke-width:0.6;" x="224.406316" xlink:href="#m050b9afbb3" y="441"/>
      </g>
     </g>
    </g>
    <g id="xtick_53">
     <g id="line2d_91">
      <g>
       <use style="stroke:#000000;stroke-width:0.6;" x="235.452099" xlink:href="#m050b9afbb3" y="441"/>
      </g>
     </g>
    </g>
    <g id="xtick_54">
     <g id="line2d_92">
      <g>
       <use style="stroke:#000000;stroke-width:0.6;" x="244.791177" xlink:href="#m050b9afbb3" y="441"/>
      </g>
     </g>
    </g>
    <g id="xtick_55">
     <g id="line2d_93">
      <g>
       <use style="stroke:#000000;stroke-width:0.6;" x="252.881053" xlink:href="#m050b9afbb3" y="441"/>
      </g>
     </g>
    </g>
    <g id="xtick_56">
     <g id="line2d_94">
      <g>
       <use style="stroke:#000000;stroke-width:0.6;" x="260.01683" xlink:href="#m050b9afbb3" y="441"/>
      </g>
     </g>
    </g>
    <g id="xtick_57">
     <g id="line2d_95">
      <g>
       <use style="stroke:#000000;stroke-width:0.6;" x="308.393684" xlink:href="#m050b9afbb3" y="441"/>
      </g>
     </g>
    </g>
    <g id="xtick_58">
     <g id="line2d_96">
      <g>
       <use style="stroke:#000000;stroke-width:0.6;" x="332.958415" xlink:href="#m050b9afbb3" y="441"/>
      </g>
     </g>
    </g>
    <g id="xtick_59">
     <g id="line2d_97">
      <g>
       <use style="stroke:#000000;stroke-width:0.6;" x="350.387369" xlink:href="#m050b9afbb3" y="441"/>
      </g>
     </g>
    </g>
    <g id="xtick_60">
     <g id="line2d_98">
      <g>
       <use style="stroke:#000000;stroke-width:0.6;" x="363.906316" xlink:href="#m050b9afbb3" y="441"/>
      </g>
     </g>
    </g>
    <g id="xtick_61">
     <g id="line2d_99">
      <g>
       <use style="stroke:#000000;stroke-width:0.6;" x="374.952099" xlink:href="#m050b9afbb3" y="441"/>
      </g>
     </g>
    </g>
    <g id="xtick_62">
     <g id="line2d_100">
      <g>
       <use style="stroke:#000000;stroke-width:0.6;" x="384.291177" xlink:href="#m050b9afbb3" y="441"/>
      </g>
     </g>
    </g>
    <g id="xtick_63">
     <g id="line2d_101">
      <g>
       <use style="stroke:#000000;stroke-width:0.6;" x="392.381053" xlink:href="#m050b9afbb3" y="441"/>
      </g>
     </g>
    </g>
    <g id="xtick_64">
     <g id="line2d_102">
      <g>
       <use style="stroke:#000000;stroke-width:0.6;" x="399.51683" xlink:href="#m050b9afbb3" y="441"/>
      </g>
     </g>
    </g>
    <g id="xtick_65">
     <g id="line2d_103">
      <g>
       <use style="stroke:#000000;stroke-width:0.6;" x="447.893684" xlink:href="#m050b9afbb3" y="441"/>
      </g>
     </g>
    </g>
    <g id="xtick_66">
     <g id="line2d_104">
      <g>
       <use style="stroke:#000000;stroke-width:0.6;" x="472.458415" xlink:href="#m050b9afbb3" y="441"/>
      </g>
     </g>
    </g>
    <g id="xtick_67">
     <g id="line2d_105">
      <g>
       <use style="stroke:#000000;stroke-width:0.6;" x="489.887369" xlink:href="#m050b9afbb3" y="441"/>
      </g>
     </g>
    </g>
    <g id="xtick_68">
     <g id="line2d_106">
      <g>
       <use style="stroke:#000000;stroke-width:0.6;" x="503.406316" xlink:href="#m050b9afbb3" y="441"/>
      </g>
     </g>
    </g>
    <g id="xtick_69">
     <g id="line2d_107">
      <g>
       <use style="stroke:#000000;stroke-width:0.6;" x="514.452099" xlink:href="#m050b9afbb3" y="441"/>
      </g>
     </g>
    </g>
    <g id="xtick_70">
     <g id="line2d_108">
      <g>
       <use style="stroke:#000000;stroke-width:0.6;" x="523.791177" xlink:href="#m050b9afbb3" y="441"/>
      </g>
     </g>
    </g>
    <g id="xtick_71">
     <g id="line2d_109">
      <g>
       <use style="stroke:#000000;stroke-width:0.6;" x="531.881053" xlink:href="#m050b9afbb3" y="441"/>
      </g>
     </g>
    </g>
    <g id="xtick_72">
     <g id="line2d_110">
      <g>
       <use style="stroke:#000000;stroke-width:0.6;" x="539.01683" xlink:href="#m050b9afbb3" y="441"/>
      </g>
     </g>
    </g>
    <g id="xtick_73">
     <g id="line2d_111">
      <g>
       <use style="stroke:#000000;stroke-width:0.6;" x="587.393684" xlink:href="#m050b9afbb3" y="441"/>
      </g>
     </g>
    </g>
    <g id="xtick_74">
     <g id="line2d_112">
      <g>
       <use style="stroke:#000000;stroke-width:0.6;" x="611.958415" xlink:href="#m050b9afbb3" y="441"/>
      </g>
     </g>
    </g>
    <g id="xtick_75">
     <g id="line2d_113">
      <g>
       <use style="stroke:#000000;stroke-width:0.6;" x="629.387369" xlink:href="#m050b9afbb3" y="441"/>
      </g>
     </g>
    </g>
    <g id="xtick_76">
     <g id="line2d_114">
      <g>
       <use style="stroke:#000000;stroke-width:0.6;" x="642.906316" xlink:href="#m050b9afbb3" y="441"/>
      </g>
     </g>
    </g>
    <g id="xtick_77">
     <g id="line2d_115">
      <g>
       <use style="stroke:#000000;stroke-width:0.6;" x="653.952099" xlink:href="#m050b9afbb3" y="441"/>
      </g>
     </g>
    </g>
    <g id="xtick_78">
     <g id="line2d_116">
      <g>
       <use style="stroke:#000000;stroke-width:0.6;" x="663.291177" xlink:href="#m050b9afbb3" y="441"/>
      </g>
     </g>
    </g>
    <g id="xtick_79">
     <g id="line2d_117">
      <g>
       <use style="stroke:#000000;stroke-width:0.6;" x="671.381053" xlink:href="#m050b9afbb3" y="441"/>
      </g>
     </g>
    </g>
    <g id="xtick_80">
     <g id="line2d_118">
      <g>
       <use style="stroke:#000000;stroke-width:0.6;" x="678.51683" xlink:href="#m050b9afbb3" y="441"/>
      </g>
     </g>
    </g>
    <g id="text_17">
     <!-- Frequency $f [Hz]$ -->
     <g transform="translate(366.1 469.278125)scale(0.1 -0.1)">
      <defs>
       <path d="M 628 4666 
L 3309 4666 
L 3309 4134 
L 1259 4134 
L 1259 2759 
L 3109 2759 
L 3109 2228 
L 1259 2228 
L 1259 0 
L 628 0 
L 628 4666 
z
" id="DejaVuSans-46" transform="scale(0.015625)"/>
       <path d="M 947 1747 
Q 947 1113 1208 752 
Q 1469 391 1925 391 
Q 2381 391 2643 752 
Q 2906 1113 2906 1747 
Q 2906 2381 2643 2742 
Q 2381 3103 1925 3103 
Q 1469 3103 1208 2742 
Q 947 2381 947 1747 
z
M 2906 525 
Q 2725 213 2448 61 
Q 2172 -91 1784 -91 
Q 1150 -91 751 415 
Q 353 922 353 1747 
Q 353 2572 751 3078 
Q 1150 3584 1784 3584 
Q 2172 3584 2448 3432 
Q 2725 3281 2906 2969 
L 2906 3500 
L 3481 3500 
L 3481 -1331 
L 2906 -1331 
L 2906 525 
z
" id="DejaVuSans-71" transform="scale(0.015625)"/>
       <path d="M 3513 2113 
L 3513 0 
L 2938 0 
L 2938 2094 
Q 2938 2591 2744 2837 
Q 2550 3084 2163 3084 
Q 1697 3084 1428 2787 
Q 1159 2491 1159 1978 
L 1159 0 
L 581 0 
L 581 3500 
L 1159 3500 
L 1159 2956 
Q 1366 3272 1645 3428 
Q 1925 3584 2291 3584 
Q 2894 3584 3203 3211 
Q 3513 2838 3513 2113 
z
" id="DejaVuSans-6e" transform="scale(0.015625)"/>
       <path d="M 3122 3366 
L 3122 2828 
Q 2878 2963 2633 3030 
Q 2388 3097 2138 3097 
Q 1578 3097 1268 2742 
Q 959 2388 959 1747 
Q 959 1106 1268 751 
Q 1578 397 2138 397 
Q 2388 397 2633 464 
Q 2878 531 3122 666 
L 3122 134 
Q 2881 22 2623 -34 
Q 2366 -91 2075 -91 
Q 1284 -91 818 406 
Q 353 903 353 1747 
Q 353 2603 823 3093 
Q 1294 3584 2113 3584 
Q 2378 3584 2631 3529 
Q 2884 3475 3122 3366 
z
" id="DejaVuSans-63" transform="scale(0.015625)"/>
       <path d="M 2059 -325 
Q 1816 -950 1584 -1140 
Q 1353 -1331 966 -1331 
L 506 -1331 
L 506 -850 
L 844 -850 
Q 1081 -850 1212 -737 
Q 1344 -625 1503 -206 
L 1606 56 
L 191 3500 
L 800 3500 
L 1894 763 
L 2988 3500 
L 3597 3500 
L 2059 -325 
z
" id="DejaVuSans-79" transform="scale(0.015625)"/>
       <path d="M 3059 4863 
L 2969 4384 
L 2419 4384 
Q 2106 4384 1964 4261 
Q 1822 4138 1753 3809 
L 1691 3500 
L 2638 3500 
L 2553 3053 
L 1606 3053 
L 1013 0 
L 434 0 
L 1031 3053 
L 481 3053 
L 563 3500 
L 1113 3500 
L 1159 3744 
Q 1278 4363 1576 4613 
Q 1875 4863 2516 4863 
L 3059 4863 
z
" id="DejaVuSans-Oblique-66" transform="scale(0.015625)"/>
       <path d="M 550 4863 
L 1875 4863 
L 1875 4416 
L 1125 4416 
L 1125 -397 
L 1875 -397 
L 1875 -844 
L 550 -844 
L 550 4863 
z
" id="DejaVuSans-5b" transform="scale(0.015625)"/>
       <path d="M 744 3500 
L 3475 3500 
L 3372 2975 
L 738 459 
L 2913 459 
L 2822 0 
L -19 0 
L 84 525 
L 2719 3041 
L 653 3041 
L 744 3500 
z
" id="DejaVuSans-Oblique-7a" transform="scale(0.015625)"/>
       <path d="M 1947 4863 
L 1947 -844 
L 622 -844 
L 622 -397 
L 1369 -397 
L 1369 4416 
L 622 4416 
L 622 4863 
L 1947 4863 
z
" id="DejaVuSans-5d" transform="scale(0.015625)"/>
      </defs>
      <use transform="translate(0 0.015625)" xlink:href="#DejaVuSans-46"/>
      <use transform="translate(57.519531 0.015625)" xlink:href="#DejaVuSans-72"/>
      <use transform="translate(98.632812 0.015625)" xlink:href="#DejaVuSans-65"/>
      <use transform="translate(160.15625 0.015625)" xlink:href="#DejaVuSans-71"/>
      <use transform="translate(223.632812 0.015625)" xlink:href="#DejaVuSans-75"/>
      <use transform="translate(287.011719 0.015625)" xlink:href="#DejaVuSans-65"/>
      <use transform="translate(348.535156 0.015625)" xlink:href="#DejaVuSans-6e"/>
      <use transform="translate(411.914062 0.015625)" xlink:href="#DejaVuSans-63"/>
      <use transform="translate(466.894531 0.015625)" xlink:href="#DejaVuSans-79"/>
      <use transform="translate(526.074219 0.015625)" xlink:href="#DejaVuSans-20"/>
      <use transform="translate(557.861328 0.015625)" xlink:href="#DejaVuSans-Oblique-66"/>
      <use transform="translate(593.066406 0.015625)" xlink:href="#DejaVuSans-5b"/>
      <use transform="translate(628.955078 0.015625)" xlink:href="#DejaVuSans-Oblique-48"/>
      <use transform="translate(704.150391 0.015625)" xlink:href="#DejaVuSans-Oblique-7a"/>
      <use transform="translate(756.640625 0.015625)" xlink:href="#DejaVuSans-5d"/>
     </g>
    </g>
   </g>
   <g id="matplotlib.axis_4">
    <g id="ytick_17">
     <g id="line2d_119">
      <path clip-path="url(#pfc76604fba)" d="M 99 423.575814 
L 712.8 423.575814 
" style="fill:none;stroke:#b0b0b0;stroke-linecap:square;stroke-width:0.8;"/>
     </g>
     <g id="line2d_120">
      <g>
       <use style="stroke:#000000;stroke-width:0.8;" x="99" xlink:href="#m690a22627c" y="423.575814"/>
      </g>
     </g>
     <g id="text_18">
      <!-- 150 -->
      <g transform="translate(64.532813 427.375033)scale(0.1 -0.1)">
       <defs>
        <path d="M 691 4666 
L 3169 4666 
L 3169 4134 
L 1269 4134 
L 1269 2991 
Q 1406 3038 1543 3061 
Q 1681 3084 1819 3084 
Q 2600 3084 3056 2656 
Q 3513 2228 3513 1497 
Q 3513 744 3044 326 
Q 2575 -91 1722 -91 
Q 1428 -91 1123 -41 
Q 819 9 494 109 
L 494 744 
Q 775 591 1075 516 
Q 1375 441 1709 441 
Q 2250 441 2565 725 
Q 2881 1009 2881 1497 
Q 2881 1984 2565 2268 
Q 2250 2553 1709 2553 
Q 1456 2553 1204 2497 
Q 953 2441 691 2322 
L 691 4666 
z
" id="DejaVuSans-35" transform="scale(0.015625)"/>
       </defs>
       <use xlink:href="#DejaVuSans-2212"/>
       <use x="83.789062" xlink:href="#DejaVuSans-31"/>
       <use x="147.412109" xlink:href="#DejaVuSans-35"/>
       <use x="211.035156" xlink:href="#DejaVuSans-30"/>
      </g>
     </g>
    </g>
    <g id="ytick_18">
     <g id="line2d_121">
      <path clip-path="url(#pfc76604fba)" d="M 99 401.192383 
L 712.8 401.192383 
" style="fill:none;stroke:#b0b0b0;stroke-linecap:square;stroke-width:0.8;"/>
     </g>
     <g id="line2d_122">
      <g>
       <use style="stroke:#000000;stroke-width:0.8;" x="99" xlink:href="#m690a22627c" y="401.192383"/>
      </g>
     </g>
     <g id="text_19">
      <!-- 100 -->
      <g transform="translate(64.532813 404.991601)scale(0.1 -0.1)">
       <use xlink:href="#DejaVuSans-2212"/>
       <use x="83.789062" xlink:href="#DejaVuSans-31"/>
       <use x="147.412109" xlink:href="#DejaVuSans-30"/>
       <use x="211.035156" xlink:href="#DejaVuSans-30"/>
      </g>
     </g>
    </g>
    <g id="ytick_19">
     <g id="line2d_123">
      <path clip-path="url(#pfc76604fba)" d="M 99 378.808951 
L 712.8 378.808951 
" style="fill:none;stroke:#b0b0b0;stroke-linecap:square;stroke-width:0.8;"/>
     </g>
     <g id="line2d_124">
      <g>
       <use style="stroke:#000000;stroke-width:0.8;" x="99" xlink:href="#m690a22627c" y="378.808951"/>
      </g>
     </g>
     <g id="text_20">
      <!-- 50 -->
      <g transform="translate(70.895313 382.608169)scale(0.1 -0.1)">
       <use xlink:href="#DejaVuSans-2212"/>
       <use x="83.789062" xlink:href="#DejaVuSans-35"/>
       <use x="147.412109" xlink:href="#DejaVuSans-30"/>
      </g>
     </g>
    </g>
    <g id="ytick_20">
     <g id="line2d_125">
      <path clip-path="url(#pfc76604fba)" d="M 99 356.425519 
L 712.8 356.425519 
" style="fill:none;stroke:#b0b0b0;stroke-linecap:square;stroke-width:0.8;"/>
     </g>
     <g id="line2d_126">
      <g>
       <use style="stroke:#000000;stroke-width:0.8;" x="99" xlink:href="#m690a22627c" y="356.425519"/>
      </g>
     </g>
     <g id="text_21">
      <!-- 0 -->
      <g transform="translate(85.6375 360.224738)scale(0.1 -0.1)">
       <use xlink:href="#DejaVuSans-30"/>
      </g>
     </g>
    </g>
    <g id="ytick_21">
     <g id="line2d_127">
      <path clip-path="url(#pfc76604fba)" d="M 99 334.042087 
L 712.8 334.042087 
" style="fill:none;stroke:#b0b0b0;stroke-linecap:square;stroke-width:0.8;"/>
     </g>
     <g id="line2d_128">
      <g>
       <use style="stroke:#000000;stroke-width:0.8;" x="99" xlink:href="#m690a22627c" y="334.042087"/>
      </g>
     </g>
     <g id="text_22">
      <!-- 50 -->
      <g transform="translate(79.275 337.841306)scale(0.1 -0.1)">
       <use xlink:href="#DejaVuSans-35"/>
       <use x="63.623047" xlink:href="#DejaVuSans-30"/>
      </g>
     </g>
    </g>
    <g id="ytick_22">
     <g id="line2d_129">
      <path clip-path="url(#pfc76604fba)" d="M 99 311.658655 
L 712.8 311.658655 
" style="fill:none;stroke:#b0b0b0;stroke-linecap:square;stroke-width:0.8;"/>
     </g>
     <g id="line2d_130">
      <g>
       <use style="stroke:#000000;stroke-width:0.8;" x="99" xlink:href="#m690a22627c" y="311.658655"/>
      </g>
     </g>
     <g id="text_23">
      <!-- 100 -->
      <g transform="translate(72.9125 315.457874)scale(0.1 -0.1)">
       <use xlink:href="#DejaVuSans-31"/>
       <use x="63.623047" xlink:href="#DejaVuSans-30"/>
       <use x="127.246094" xlink:href="#DejaVuSans-30"/>
      </g>
     </g>
    </g>
    <g id="ytick_23">
     <g id="line2d_131">
      <path clip-path="url(#pfc76604fba)" d="M 99 289.275223 
L 712.8 289.275223 
" style="fill:none;stroke:#b0b0b0;stroke-linecap:square;stroke-width:0.8;"/>
     </g>
     <g id="line2d_132">
      <g>
       <use style="stroke:#000000;stroke-width:0.8;" x="99" xlink:href="#m690a22627c" y="289.275223"/>
      </g>
     </g>
     <g id="text_24">
      <!-- 150 -->
      <g transform="translate(72.9125 293.074442)scale(0.1 -0.1)">
       <use xlink:href="#DejaVuSans-31"/>
       <use x="63.623047" xlink:href="#DejaVuSans-35"/>
       <use x="127.246094" xlink:href="#DejaVuSans-30"/>
      </g>
     </g>
    </g>
    <g id="text_25">
     <!-- $\Phi [deg]$ -->
     <g transform="translate(58.432813 371.818182)rotate(-90)scale(0.1 -0.1)">
      <defs>
       <path d="M 2206 3644 
Q 1738 3578 1431 3306 
Q 1025 2947 1025 2328 
Q 1025 1713 1431 1353 
Q 1738 1081 2206 1016 
L 2206 3644 
z
M 2838 1016 
Q 3306 1081 3613 1353 
Q 4013 1713 4013 2328 
Q 4013 2947 3613 3306 
Q 3306 3578 2838 3644 
L 2838 1016 
z
M 2206 494 
Q 1444 563 950 981 
Q 359 1481 359 2328 
Q 359 3175 950 3678 
Q 1441 4100 2206 4169 
L 2206 4666 
L 2838 4666 
L 2838 4169 
Q 3600 4097 4091 3678 
Q 4678 3175 4678 2328 
Q 4678 1484 4091 981 
Q 3600 563 2838 491 
L 2838 0 
L 2206 0 
L 2206 494 
z
" id="DejaVuSans-3a6" transform="scale(0.015625)"/>
       <path d="M 2675 525 
Q 2444 222 2128 65 
Q 1813 -91 1428 -91 
Q 903 -91 598 267 
Q 294 625 294 1247 
Q 294 1766 478 2236 
Q 663 2706 1013 3078 
Q 1244 3325 1534 3454 
Q 1825 3584 2144 3584 
Q 2481 3584 2739 3421 
Q 2997 3259 3138 2956 
L 3513 4863 
L 4091 4863 
L 3144 0 
L 2566 0 
L 2675 525 
z
M 891 1350 
Q 891 897 1095 644 
Q 1300 391 1663 391 
Q 1931 391 2161 520 
Q 2391 650 2566 903 
Q 2750 1166 2856 1509 
Q 2963 1853 2963 2188 
Q 2963 2622 2758 2865 
Q 2553 3109 2194 3109 
Q 1922 3109 1687 2981 
Q 1453 2853 1288 2613 
Q 1106 2353 998 2009 
Q 891 1666 891 1350 
z
" id="DejaVuSans-Oblique-64" transform="scale(0.015625)"/>
       <path d="M 3078 2063 
Q 3088 2113 3092 2166 
Q 3097 2219 3097 2272 
Q 3097 2653 2873 2875 
Q 2650 3097 2266 3097 
Q 1838 3097 1509 2826 
Q 1181 2556 1013 2059 
L 3078 2063 
z
M 3578 1613 
L 903 1613 
Q 884 1494 878 1425 
Q 872 1356 872 1306 
Q 872 872 1139 634 
Q 1406 397 1894 397 
Q 2269 397 2603 481 
Q 2938 566 3225 728 
L 3116 159 
Q 2806 34 2476 -28 
Q 2147 -91 1806 -91 
Q 1078 -91 686 257 
Q 294 606 294 1247 
Q 294 1794 489 2264 
Q 684 2734 1063 3103 
Q 1306 3334 1642 3459 
Q 1978 3584 2356 3584 
Q 2950 3584 3301 3228 
Q 3653 2872 3653 2272 
Q 3653 2128 3634 1964 
Q 3616 1800 3578 1613 
z
" id="DejaVuSans-Oblique-65" transform="scale(0.015625)"/>
       <path d="M 3816 3500 
L 3219 434 
Q 3047 -456 2561 -893 
Q 2075 -1331 1253 -1331 
Q 950 -1331 690 -1286 
Q 431 -1241 206 -1147 
L 313 -588 
Q 525 -725 762 -790 
Q 1000 -856 1269 -856 
Q 1816 -856 2167 -557 
Q 2519 -259 2631 300 
L 2681 563 
Q 2441 288 2122 144 
Q 1803 0 1434 0 
Q 903 0 598 351 
Q 294 703 294 1319 
Q 294 1803 478 2267 
Q 663 2731 997 3091 
Q 1219 3328 1514 3456 
Q 1809 3584 2131 3584 
Q 2484 3584 2746 3420 
Q 3009 3256 3138 2956 
L 3238 3500 
L 3816 3500 
z
M 2950 2216 
Q 2950 2641 2750 2872 
Q 2550 3103 2181 3103 
Q 1953 3103 1747 3012 
Q 1541 2922 1394 2759 
Q 1156 2491 1023 2127 
Q 891 1763 891 1375 
Q 891 944 1092 712 
Q 1294 481 1672 481 
Q 2219 481 2584 976 
Q 2950 1472 2950 2216 
z
" id="DejaVuSans-Oblique-67" transform="scale(0.015625)"/>
      </defs>
      <use transform="translate(0 0.015625)" xlink:href="#DejaVuSans-3a6"/>
      <use transform="translate(78.710938 0.015625)" xlink:href="#DejaVuSans-5b"/>
      <use transform="translate(117.724609 0.015625)" xlink:href="#DejaVuSans-Oblique-64"/>
      <use transform="translate(181.201172 0.015625)" xlink:href="#DejaVuSans-Oblique-65"/>
      <use transform="translate(242.724609 0.015625)" xlink:href="#DejaVuSans-Oblique-67"/>
      <use transform="translate(306.201172 0.015625)" xlink:href="#DejaVuSans-5d"/>
     </g>
    </g>
   </g>
   <g id="line2d_133">
    <path clip-path="url(#pfc76604fba)" d="M 126.9 356.373947 
L 132.536364 356.368919 
L 138.172727 356.363401 
L 143.809091 356.357345 
L 149.445455 356.350698 
L 155.081818 356.343403 
L 160.718182 356.335397 
L 166.354545 356.32661 
L 171.990909 356.316967 
L 177.627273 356.306383 
L 183.263636 356.294768 
L 188.9 356.28202 
L 194.536364 356.268029 
L 200.172727 356.252675 
L 205.809091 356.235823 
L 211.445455 356.217329 
L 217.081818 356.197031 
L 222.718182 356.174756 
L 228.354545 356.150308 
L 233.990909 356.123478 
L 239.627273 356.094032 
L 245.263636 356.061717 
L 250.9 356.026252 
L 256.536364 355.987332 
L 262.172727 355.944618 
L 267.809091 355.897744 
L 273.445455 355.846303 
L 279.081818 355.789852 
L 284.718182 355.727905 
L 290.354545 355.659927 
L 295.990909 355.585334 
L 301.627273 355.503484 
L 307.263636 355.413676 
L 312.9 355.31514 
L 318.536364 355.207035 
L 324.172727 355.08844 
L 329.809091 354.958348 
L 335.445455 354.81566 
L 341.081818 354.659174 
L 346.718182 354.487584 
L 352.354545 354.299464 
L 357.990909 354.093266 
L 363.627273 353.867313 
L 369.263636 353.619789 
L 374.9 353.348736 
L 380.536364 353.05205 
L 386.172727 352.727483 
L 391.809091 352.372641 
L 397.445455 351.985001 
L 403.081818 351.561917 
L 408.718182 351.100654 
L 414.354545 350.59842 
L 419.990909 350.052416 
L 425.627273 349.459906 
L 431.263636 348.818305 
L 436.9 348.125288 
L 442.536364 347.378921 
L 448.172727 346.577822 
L 453.809091 345.721333 
L 459.445455 344.809703 
L 465.081818 343.844277 
L 470.718182 342.827659 
L 476.354545 341.763841 
L 481.990909 340.658258 
L 487.627273 339.517769 
L 493.263636 338.350524 
L 498.9 337.165732 
L 504.536364 335.97333 
L 510.172727 334.783575 
L 515.809091 333.606613 
L 521.445455 332.452053 
L 527.081818 331.328594 
L 532.718182 330.243744 
L 538.354545 329.203638 
L 543.990909 328.212967 
L 549.627273 327.274995 
L 555.263636 326.391658 
L 560.9 325.563715 
L 566.536364 324.790926 
L 572.172727 324.072236 
L 577.809091 323.405959 
L 583.445455 322.789941 
L 589.081818 322.221709 
L 594.718182 321.698586 
L 600.354545 321.217795 
L 605.990909 320.776535 
L 611.627273 320.372034 
L 617.263636 320.001603 
L 622.9 319.662655 
L 628.536364 319.352731 
L 634.172727 319.069514 
L 639.809091 318.810827 
L 645.445455 318.574644 
L 651.081818 318.35908 
L 656.718182 318.16239 
L 662.354545 317.982965 
L 667.990909 317.819322 
L 673.627273 317.670096 
L 679.263636 317.534036 
L 684.9 317.409994 
" style="fill:none;stroke:#1f77b4;stroke-linecap:square;stroke-width:1.5;"/>
   </g>
   <g id="line2d_134">
    <path clip-path="url(#pfc76604fba)" d="M 126.9 275.898347 
L 132.536364 275.903532 
L 138.172727 275.909223 
L 143.809091 275.915469 
L 149.445455 275.922323 
L 155.081818 275.929846 
L 160.718182 275.938103 
L 166.354545 275.947164 
L 171.990909 275.957109 
L 177.627273 275.968023 
L 183.263636 275.980001 
L 188.9 275.993147 
L 194.536364 276.007575 
L 200.172727 276.02341 
L 205.809091 276.040788 
L 211.445455 276.05986 
L 217.081818 276.080791 
L 222.718182 276.103763 
L 228.354545 276.128974 
L 233.990909 276.156643 
L 239.627273 276.187008 
L 245.263636 276.220333 
L 250.9 276.256906 
L 256.536364 276.297042 
L 262.172727 276.341089 
L 267.809091 276.389427 
L 273.445455 276.442474 
L 279.081818 276.500687 
L 284.718182 276.564567 
L 290.354545 276.634666 
L 295.990909 276.711586 
L 301.627273 276.795987 
L 307.263636 276.888593 
L 312.9 276.990197 
L 318.536364 277.101666 
L 324.172727 277.223948 
L 329.809091 277.358081 
L 335.445455 277.505195 
L 341.081818 277.666527 
L 346.718182 277.843422 
L 352.354545 278.037345 
L 357.990909 278.249886 
L 363.627273 278.482768 
L 369.263636 278.737854 
L 374.9 279.017149 
L 380.536364 279.322805 
L 386.172727 279.657121 
L 391.809091 280.022533 
L 397.445455 280.42161 
L 403.081818 280.857029 
L 408.718182 281.331551 
L 414.354545 281.847978 
L 419.990909 282.409098 
L 425.627273 283.017609 
L 431.263636 283.676027 
L 436.9 284.386567 
L 442.536364 285.151001 
L 448.172727 285.970497 
L 453.809091 286.845439 
L 459.445455 287.775242 
L 465.081818 288.758168 
L 470.718182 289.791173 
L 476.354545 290.8698 
L 481.990909 291.988143 
L 487.627273 293.138907 
L 493.263636 294.313566 
L 498.9 295.50264 
L 504.536364 296.696046 
L 510.172727 297.883519 
L 515.809091 299.055054 
L 521.445455 300.201309 
L 527.081818 301.313957 
L 532.718182 302.385934 
L 538.354545 303.411585 
L 543.990909 304.386706 
L 549.627273 305.308492 
L 555.263636 306.175424 
L 560.9 306.987106 
L 566.536364 307.744083 
L 572.172727 308.447652 
L 577.809091 309.09969 
L 583.445455 309.702493 
L 589.081818 310.258636 
L 594.718182 310.770865 
L 600.354545 311.242002 
L 605.990909 311.674876 
L 611.627273 312.072272 
L 617.263636 312.436889 
L 622.9 312.771315 
L 628.536364 313.078015 
L 634.172727 313.359314 
L 639.809091 313.617401 
L 645.445455 313.854324 
L 651.081818 314.071999 
L 656.718182 314.272213 
L 662.354545 314.456634 
L 667.990909 314.626822 
L 673.627273 314.784234 
L 679.263636 314.930246 
L 684.9 315.066157 
" style="fill:none;stroke:#ff7f0e;stroke-linecap:square;stroke-width:1.5;"/>
   </g>
   <g id="line2d_135">
    <path clip-path="url(#pfc76604fba)" d="M 503.085486 441 
L 503.085486 268.036364 
" style="fill:none;stroke:#ff0000;stroke-dasharray:5.55,2.4;stroke-dashoffset:0;stroke-width:1.5;"/>
   </g>
   <g id="line2d_136">
    <g clip-path="url(#pfc76604fba)">
     <use style="fill:#ff0000;stroke:#ff0000;" x="266.4" xlink:href="#m143c7fdb69" y="356.469999"/>
     <use style="fill:#ff0000;stroke:#ff0000;" x="363.906316" xlink:href="#m143c7fdb69" y="354.23051"/>
     <use style="fill:#ff0000;stroke:#ff0000;" x="405.9" xlink:href="#m143c7fdb69" y="351.068537"/>
     <use style="fill:#ff0000;stroke:#ff0000;" x="447.893684" xlink:href="#m143c7fdb69" y="344.422269"/>
     <use style="fill:#ff0000;stroke:#ff0000;" x="489.887369" xlink:href="#m143c7fdb69" y="338.607591"/>
     <use style="fill:#ff0000;stroke:#ff0000;" x="503.085584" xlink:href="#m143c7fdb69" y="334.911946"/>
     <use style="fill:#ff0000;stroke:#ff0000;" x="514.452099" xlink:href="#m143c7fdb69" y="332.019341"/>
     <use style="fill:#ff0000;stroke:#ff0000;" x="531.881053" xlink:href="#m143c7fdb69" y="328.009663"/>
     <use style="fill:#ff0000;stroke:#ff0000;" x="545.4" xlink:href="#m143c7fdb69" y="322.839627"/>
     <use style="fill:#ff0000;stroke:#ff0000;" x="611.958415" xlink:href="#m143c7fdb69" y="309.33436"/>
     <use style="fill:#ff0000;stroke:#ff0000;" x="653.952099" xlink:href="#m143c7fdb69" y="294.475342"/>
     <use style="fill:#ff0000;stroke:#ff0000;" x="684.9" xlink:href="#m143c7fdb69" y="433.138017"/>
    </g>
   </g>
   <g id="patch_9">
    <path d="M 99 441 
L 99 268.036364 
" style="fill:none;stroke:#000000;stroke-linecap:square;stroke-linejoin:miter;stroke-width:0.8;"/>
   </g>
   <g id="patch_10">
    <path d="M 712.8 441 
L 712.8 268.036364 
" style="fill:none;stroke:#000000;stroke-linecap:square;stroke-linejoin:miter;stroke-width:0.8;"/>
   </g>
   <g id="patch_11">
    <path d="M 99 441 
L 712.8 441 
" style="fill:none;stroke:#000000;stroke-linecap:square;stroke-linejoin:miter;stroke-width:0.8;"/>
   </g>
   <g id="patch_12">
    <path d="M 99 268.036364 
L 712.8 268.036364 
" style="fill:none;stroke:#000000;stroke-linecap:square;stroke-linejoin:miter;stroke-width:0.8;"/>
   </g>
  </g>
  <g id="text_26">
   <!-- Simulated Low-pass Bode plot -->
   <g transform="translate(305.453438 19.198125)scale(0.12 -0.12)">
    <defs>
     <path d="M 3425 4513 
L 3425 3897 
Q 3066 4069 2747 4153 
Q 2428 4238 2131 4238 
Q 1616 4238 1336 4038 
Q 1056 3838 1056 3469 
Q 1056 3159 1242 3001 
Q 1428 2844 1947 2747 
L 2328 2669 
Q 3034 2534 3370 2195 
Q 3706 1856 3706 1288 
Q 3706 609 3251 259 
Q 2797 -91 1919 -91 
Q 1588 -91 1214 -16 
Q 841 59 441 206 
L 441 856 
Q 825 641 1194 531 
Q 1563 422 1919 422 
Q 2459 422 2753 634 
Q 3047 847 3047 1241 
Q 3047 1584 2836 1778 
Q 2625 1972 2144 2069 
L 1759 2144 
Q 1053 2284 737 2584 
Q 422 2884 422 3419 
Q 422 4038 858 4394 
Q 1294 4750 2059 4750 
Q 2388 4750 2728 4690 
Q 3069 4631 3425 4513 
z
" id="DejaVuSans-53" transform="scale(0.015625)"/>
     <path d="M 603 3500 
L 1178 3500 
L 1178 0 
L 603 0 
L 603 3500 
z
M 603 4863 
L 1178 4863 
L 1178 4134 
L 603 4134 
L 603 4863 
z
" id="DejaVuSans-69" transform="scale(0.015625)"/>
     <path d="M 3328 2828 
Q 3544 3216 3844 3400 
Q 4144 3584 4550 3584 
Q 5097 3584 5394 3201 
Q 5691 2819 5691 2113 
L 5691 0 
L 5113 0 
L 5113 2094 
Q 5113 2597 4934 2840 
Q 4756 3084 4391 3084 
Q 3944 3084 3684 2787 
Q 3425 2491 3425 1978 
L 3425 0 
L 2847 0 
L 2847 2094 
Q 2847 2600 2669 2842 
Q 2491 3084 2119 3084 
Q 1678 3084 1418 2786 
Q 1159 2488 1159 1978 
L 1159 0 
L 581 0 
L 581 3500 
L 1159 3500 
L 1159 2956 
Q 1356 3278 1631 3431 
Q 1906 3584 2284 3584 
Q 2666 3584 2933 3390 
Q 3200 3197 3328 2828 
z
" id="DejaVuSans-6d" transform="scale(0.015625)"/>
     <path d="M 628 4666 
L 1259 4666 
L 1259 531 
L 3531 531 
L 3531 0 
L 628 0 
L 628 4666 
z
" id="DejaVuSans-4c" transform="scale(0.015625)"/>
     <path d="M 1959 3097 
Q 1497 3097 1228 2736 
Q 959 2375 959 1747 
Q 959 1119 1226 758 
Q 1494 397 1959 397 
Q 2419 397 2687 759 
Q 2956 1122 2956 1747 
Q 2956 2369 2687 2733 
Q 2419 3097 1959 3097 
z
M 1959 3584 
Q 2709 3584 3137 3096 
Q 3566 2609 3566 1747 
Q 3566 888 3137 398 
Q 2709 -91 1959 -91 
Q 1206 -91 779 398 
Q 353 888 353 1747 
Q 353 2609 779 3096 
Q 1206 3584 1959 3584 
z
" id="DejaVuSans-6f" transform="scale(0.015625)"/>
     <path d="M 269 3500 
L 844 3500 
L 1563 769 
L 2278 3500 
L 2956 3500 
L 3675 769 
L 4391 3500 
L 4966 3500 
L 4050 0 
L 3372 0 
L 2619 2869 
L 1863 0 
L 1184 0 
L 269 3500 
z
" id="DejaVuSans-77" transform="scale(0.015625)"/>
     <path d="M 313 2009 
L 1997 2009 
L 1997 1497 
L 313 1497 
L 313 2009 
z
" id="DejaVuSans-2d" transform="scale(0.015625)"/>
     <path d="M 1159 525 
L 1159 -1331 
L 581 -1331 
L 581 3500 
L 1159 3500 
L 1159 2969 
Q 1341 3281 1617 3432 
Q 1894 3584 2278 3584 
Q 2916 3584 3314 3078 
Q 3713 2572 3713 1747 
Q 3713 922 3314 415 
Q 2916 -91 2278 -91 
Q 1894 -91 1617 61 
Q 1341 213 1159 525 
z
M 3116 1747 
Q 3116 2381 2855 2742 
Q 2594 3103 2138 3103 
Q 1681 3103 1420 2742 
Q 1159 2381 1159 1747 
Q 1159 1113 1420 752 
Q 1681 391 2138 391 
Q 2594 391 2855 752 
Q 3116 1113 3116 1747 
z
" id="DejaVuSans-70" transform="scale(0.015625)"/>
     <path d="M 1259 2228 
L 1259 519 
L 2272 519 
Q 2781 519 3026 730 
Q 3272 941 3272 1375 
Q 3272 1813 3026 2020 
Q 2781 2228 2272 2228 
L 1259 2228 
z
M 1259 4147 
L 1259 2741 
L 2194 2741 
Q 2656 2741 2882 2914 
Q 3109 3088 3109 3444 
Q 3109 3797 2882 3972 
Q 2656 4147 2194 4147 
L 1259 4147 
z
M 628 4666 
L 2241 4666 
Q 2963 4666 3353 4366 
Q 3744 4066 3744 3513 
Q 3744 3084 3544 2831 
Q 3344 2578 2956 2516 
Q 3422 2416 3680 2098 
Q 3938 1781 3938 1306 
Q 3938 681 3513 340 
Q 3088 0 2303 0 
L 628 0 
L 628 4666 
z
" id="DejaVuSans-42" transform="scale(0.015625)"/>
    </defs>
    <use xlink:href="#DejaVuSans-53"/>
    <use x="63.476562" xlink:href="#DejaVuSans-69"/>
    <use x="91.259766" xlink:href="#DejaVuSans-6d"/>
    <use x="188.671875" xlink:href="#DejaVuSans-75"/>
    <use x="252.050781" xlink:href="#DejaVuSans-6c"/>
    <use x="279.833984" xlink:href="#DejaVuSans-61"/>
    <use x="341.113281" xlink:href="#DejaVuSans-74"/>
    <use x="380.322266" xlink:href="#DejaVuSans-65"/>
    <use x="441.845703" xlink:href="#DejaVuSans-64"/>
    <use x="505.322266" xlink:href="#DejaVuSans-20"/>
    <use x="537.109375" xlink:href="#DejaVuSans-4c"/>
    <use x="591.072266" xlink:href="#DejaVuSans-6f"/>
    <use x="652.253906" xlink:href="#DejaVuSans-77"/>
    <use x="734.041016" xlink:href="#DejaVuSans-2d"/>
    <use x="770.125" xlink:href="#DejaVuSans-70"/>
    <use x="833.601562" xlink:href="#DejaVuSans-61"/>
    <use x="894.880859" xlink:href="#DejaVuSans-73"/>
    <use x="946.980469" xlink:href="#DejaVuSans-73"/>
    <use x="999.080078" xlink:href="#DejaVuSans-20"/>
    <use x="1030.867188" xlink:href="#DejaVuSans-42"/>
    <use x="1099.470703" xlink:href="#DejaVuSans-6f"/>
    <use x="1160.652344" xlink:href="#DejaVuSans-64"/>
    <use x="1224.128906" xlink:href="#DejaVuSans-65"/>
    <use x="1285.652344" xlink:href="#DejaVuSans-20"/>
    <use x="1317.439453" xlink:href="#DejaVuSans-70"/>
    <use x="1380.916016" xlink:href="#DejaVuSans-6c"/>
    <use x="1408.699219" xlink:href="#DejaVuSans-6f"/>
    <use x="1469.880859" xlink:href="#DejaVuSans-74"/>
   </g>
  </g>
 </g>
 <defs>
  <clipPath id="pa252a3ed41">
   <rect height="172.963636" width="613.8" x="99" y="60.48"/>
  </clipPath>
  <clipPath id="pfc76604fba">
   <rect height="172.963636" width="613.8" x="99" y="268.036364"/>
  </clipPath>
 </defs>
</svg>
